<?xml version="1.0" standalone="no"?>
<!DOCTYPE svg PUBLIC "-//W3C//DTD SVG 20010904//EN"
 "http://www.w3.org/TR/2001/REC-SVG-20010904/DTD/svg10.dtd">
<svg version="1.0" xmlns="http://www.w3.org/2000/svg"
 width="500.000000pt" height="500.000000pt" viewBox="0 0 500.000000 500.000000"
 preserveAspectRatio="xMidYMid meet">
<metadata>
Created by potrace 1.14, written by Peter Selinger 2001-2017
</metadata>
<g transform="translate(0.000000,500.000000) scale(0.100000,-0.100000)"
fill="#000000" stroke="none">
<path d="M2308 4995 c-1 -2 -34 -6 -72 -9 -64 -5 -88 -8 -156 -20 -251 -44
-469 -116 -691 -226 -255 -127 -445 -263 -647 -463 -414 -408 -669 -939 -730
-1522 -13 -129 -7 -472 11 -590 24 -154 24 -156 59 -290 49 -190 89 -297 183
-485 325 -655 926 -1134 1642 -1309 122 -30 145 -34 238 -47 27 -3 61 -8 75
-11 52 -9 438 -11 505 -3 39 5 92 12 119 15 229 26 523 118 766 239 762 379
1285 1137 1367 1981 16 160 10 458 -13 613 -24 170 -100 451 -155 570 -11 24
-27 62 -36 85 -56 139 -187 357 -312 517 -328 419 -779 722 -1296 868 -77 22
-187 47 -250 57 -22 3 -71 11 -110 17 -63 9 -489 21 -497 13z m442 -358 c8 -3
35 -8 60 -11 25 -3 54 -7 65 -9 11 -3 38 -8 60 -12 22 -5 45 -9 50 -10 113
-24 320 -98 437 -155 80 -40 206 -109 223 -122 6 -5 47 -34 92 -66 206 -144
397 -340 544 -558 27 -40 49 -76 49 -80 0 -4 6 -15 14 -23 24 -27 122 -231
161 -335 20 -55 50 -150 66 -210 28 -111 32 -129 45 -221 3 -27 9 -59 11 -70
9 -37 11 -410 3 -475 -19 -147 -38 -243 -75 -369 -210 -728 -795 -1298 -1524
-1482 -135 -34 -149 -37 -316 -58 -74 -9 -413 -7 -480 3 -137 21 -177 29 -280
56 -516 133 -964 457 -1261 911 -144 220 -272 541 -310 775 -25 153 -31 249
-29 419 3 195 4 206 31 360 128 727 657 1357 1359 1620 106 39 292 90 372 101
27 3 51 8 54 10 3 1 39 6 80 10 41 3 76 8 78 10 6 6 404 -3 421 -9z"/>
<path d="M1985 3065 c-382 -382 -691 -696 -687 -698 4 -2 123 -3 265 -2 l259
1 266 -266 267 -266 -1 -262 c-1 -144 2 -262 5 -262 3 0 318 312 699 693 l692
692 0 533 0 532 -535 0 -535 0 -695 -695z m1271 240 c32 -21 51 -52 62 -102
28 -124 -121 -222 -232 -153 -42 25 -77 93 -71 135 10 60 15 71 45 102 51 52
133 59 196 18z"/>
<path d="M1767 2103 c-48 -77 -87 -139 -102 -165 -5 -10 -55 -90 -110 -178
-97 -156 -178 -287 -247 -400 -19 -30 -43 -68 -53 -83 l-18 -28 49 29 c77 47
150 92 434 268 146 90 304 188 352 217 48 28 88 55 88 58 0 7 -339 349 -346
349 -2 0 -23 -30 -47 -67z"/>
</g>
</svg>
